# xmcd
#
# Track frame offsets:
#	150
#	16983
#	30480
#	47073
#	64602
#	78123
#	92460
#	114621
#	132294
#	147495
#	165312
#	181209
#
# Disc length: 2656 seconds
#
# Revision: 0
# Processed by: cddbd v1.5.2PL0 Copyright (c) Steve Scherf et al.
# Submitted via: audiograbber 1.83.01
#
DISCID=8e0a5e0c
DTITLE=Mike West - Postcard from Chicago
DYEAR=2009
DGENRE=Country
TTITLE0=Don´t Take My Soul
TTITLE1=Man In The Radio
TTITLE2=If I Would Find Someone Like You
TTITLE3=Friends In Canada
TTITLE4=You And I
TTITLE5=No More Rainy Days
TTITLE6=Postcard From Chicago
TTITLE7=See You In Denver
TTITLE8=Summer Evening
TTITLE9=Always Country
TTITLE10=No Stranger In That Country
TTITLE11=I Am Your Brother, I Am Your Friend
EXTD=
EXTT0=
EXTT1=
EXTT2=
EXTT3=
EXTT4=
EXTT5=
EXTT6=
EXTT7=
EXTT8=
EXTT9=
EXTT10=
EXTT11=
PLAYORDER=
